PathFileType  4	(X/Y/Z) C:\Users\antoi\Documents\MyRepositories\mobilecap\ResultsAnalysis
DataRate	CameraRate	NumFrames	NumMarkers	Units	OrigDataRate	OrigDataStartFrame	OrigNumFrames
100.0	100.0	6	51	mm	100.0	33	129
Frame#	Time	r_knee			r_shank_antsup			r_ankle			r_calc			r_5meta			r_toe			L_knee			L_shank_antsup			L_ankle			L_calc			L_5meta			L_toe			r_sh2			r_sh3			r_sh4			L_sh2			L_sh3			r_thigh1			r_thigh2			r_thigh3			r_thigh4			r_thigh5			L_thigh1			L_thigh2			L_thigh3			L_thigh4			r.ASIS			r.PSIS			L.ASIS			L.PSIS			C7			R_Shoulder			L_Shoulder			R_Sternum			L_Sternum			R_humerus			R_elbow_med			R_elbow_lat			R_forearm			R_wrist_radius			R_wrist_ulna			L_humerus			L_elbow_med			L_elbow_lat			L_forearm			L_wrist_radius			L_wrist_ulna			R_HJC			L_HJC			R_HJC_reg			L_HJC_reg			
		X1	Y1	Z1	X2	Y2	Z2	X3	Y3	Z3	X4	Y4	Z4	X5	Y5	Z5	X6	Y6	Z6	X7	Y7	Z7	X8	Y8	Z8	X9	Y9	Z9	X10	Y10	Z10	X11	Y11	Z11	X12	Y12	Z12	X13	Y13	Z13	X14	Y14	Z14	X15	Y15	Z15	X16	Y16	Z16	X17	Y17	Z17	X18	Y18	Z18	X19	Y19	Z19	X20	Y20	Z20	X21	Y21	Z21	X22	Y22	Z22	X23	Y23	Z23	X24	Y24	Z24	X25	Y25	Z25	X26	Y26	Z26	X27	Y27	Z27	X28	Y28	Z28	X29	Y29	Z29	X30	Y30	Z30	X31	Y31	Z31	X32	Y32	Z32	X33	Y33	Z33	X34	Y34	Z34	X35	Y35	Z35	X36	Y36	Z36	X37	Y37	Z37	X38	Y38	Z38	X39	Y39	Z39	X40	Y40	Z40	X41	Y41	Z41	X42	Y42	Z42	X43	Y43	Z43	X44	Y44	Z44	X45	Y45	Z45	X46	Y46	Z46	X47	Y47	Z47	X48	Y48	Z48	X49	Y49	Z49	X50	Y50	Z50	X51	Y51	Z51	

33	0.32000000	314.05559	470.27684	-99.42067	344.12108	405.66381	-109.24743	257.15131	85.58735	-141.67862	202.56896	58.87750	-182.95302	366.31526	41.73169	-118.72280	408.59660	58.30501	-173.59993	515.33959	504.36750	-372.97198	515.19075	408.78170	-353.70734	284.46770	208.37276	-336.59547	216.24162	211.10443	-291.06870	339.55338	105.07208	-360.70978	391.42591	97.56741	-308.13020	321.52102	295.64163	-107.24697	275.32920	419.50977	-76.25140	242.55790	307.57356	-80.52759	460.06794	466.09644	-395.81598	380.72831	371.87948	-394.26760	370.25700	715.71366	-41.04084	371.17205	603.39768	-66.00202	306.10683	581.38071	-61.78889	256.22476	712.22748	-39.62690	254.99843	602.16650	-78.56067	414.08115	762.61078	-403.95542	490.45933	646.05443	-391.64856	320.12891	703.80983	-396.37741	394.16540	592.88824	-360.81988	403.73234	925.74504	-103.23278	190.97362	957.15389	-178.61493	402.70437	921.39100	-324.72153	193.69394	950.55645	-260.25550	290.11755	1396.47946	-196.83938	339.31504	1358.44253	-57.71532	326.79731	1371.40438	-337.03335	412.15622	1327.97160	-178.72218	409.70772	1329.21363	-219.52375	370.11575	1246.31176	-2.22960	302.55571	1032.76889	-2.54040	345.09293	1045.87986	45.00527	421.48616	989.08158	43.93260	490.98762	862.44555	27.25611	466.35787	851.44262	57.56723	321.17234	1273.19129	-413.97268	259.41299	1054.38337	-402.84774	281.60721	1076.08371	-460.93599	343.86339	990.70384	-485.88964	384.84291	868.00156	-488.71984	353.31379	864.41175	-514.17387	319.22015	839.62296	-107.79716	320.07322	836.27932	-315.25922	327.19315	864.29300	-131.00769	332.04225	852.52303	-276.66526	
34	0.33000000	315.96260	470.99453	-99.73407	345.27824	406.19593	-109.30480	257.37564	86.18648	-142.02466	202.83555	59.45164	-183.27492	366.42364	41.72770	-118.75289	408.87824	58.08865	-173.57989	532.49197	508.07506	-371.87940	537.57328	412.08596	-352.60771	318.39578	198.31013	-337.83045	249.44409	196.63261	-292.91603	380.42702	98.81885	-360.93976	432.13277	94.98427	-307.85760	322.06401	296.24185	-107.32424	276.35063	420.45206	-76.95196	242.94520	308.71460	-81.37168	479.87282	466.12829	-395.66039	405.91685	367.64210	-395.03138	376.92178	715.39020	-41.01624	375.99805	603.09042	-66.33577	310.54798	582.32735	-62.39658	263.22977	713.95953	-40.01661	259.82870	604.14304	-79.37023	426.40170	764.19436	-404.43789	504.70821	649.03722	-391.35270	333.31364	703.98361	-396.58985	409.29201	594.55047	-360.25673	413.62460	925.81112	-102.56421	201.32184	957.14021	-180.29112	413.83894	921.79876	-323.83171	204.61109	950.55923	-261.98342	300.84013	1396.51473	-196.88313	350.61313	1358.71225	-57.97806	337.04761	1371.48663	-337.20449	422.82387	1328.34647	-179.14230	420.30432	1329.49204	-219.90020	383.13124	1247.09671	-2.85756	318.58914	1032.45288	-2.36404	361.34504	1046.27678	44.70171	438.89436	990.95078	42.39738	510.82753	865.87818	24.50206	486.55926	854.22972	54.96949	330.34125	1273.32355	-414.17499	267.76686	1054.89421	-402.74328	289.50096	1076.44560	-460.89196	351.46661	990.91916	-486.41410	392.25883	868.18520	-489.60473	360.44803	864.63758	-514.78063	328.85994	839.67108	-108.13883	331.68602	836.49996	-315.58849	337.17790	864.55116	-130.85285	343.03181	852.83397	-276.32297	
35	0.34000000	317.75680	471.77370	-100.01321	346.37656	406.75638	-109.26984	257.58802	86.81983	-142.33061	202.97367	60.11186	-183.60861	366.53855	41.70373	-118.77663	409.18571	57.93556	-173.50871	548.80016	511.04778	-370.61475	559.36115	415.06193	-351.33953	353.05266	187.90871	-339.05312	283.61656	181.80760	-294.86708	421.87806	92.66166	-360.86417	473.14643	92.61198	-307.19932	322.54172	296.87466	-107.31794	277.28678	421.41712	-77.64628	243.25831	309.87474	-82.23660	499.12691	465.37405	-395.44055	431.18498	362.79802	-395.82224	383.49577	715.00099	-41.02672	380.63919	602.76165	-66.63557	314.80565	583.29031	-62.99286	270.11615	715.66999	-40.48026	264.46711	606.17412	-80.15486	438.79784	765.39012	-404.73439	518.69036	651.45875	-390.79470	346.37288	704.04716	-396.93996	423.80988	595.80134	-359.77576	423.63251	925.76245	-101.98947	211.72380	956.90929	-182.01773	424.96087	921.96917	-323.09673	215.58718	950.30130	-263.74818	311.56260	1396.36138	-196.96849	361.95264	1358.81896	-58.28867	347.29945	1371.36399	-337.41121	433.52249	1328.52384	-179.61180	430.93076	1329.58601	-220.30807	396.09130	1247.72739	-3.51069	334.54002	1032.05351	-2.35928	377.45864	1046.57596	44.30317	456.08638	992.72003	40.83489	530.40908	869.27038	21.70486	506.49034	856.94869	52.29051	339.56695	1273.25927	-414.39470	276.32464	1055.14173	-402.62305	297.55119	1076.61173	-460.87341	359.24567	990.94635	-486.96939	399.88335	868.20181	-490.53211	367.80732	864.66622	-515.41011	338.63427	839.57659	-108.52734	343.33616	836.46669	-315.94834	347.23261	864.63293	-130.77033	354.10004	852.88579	-276.08487	
36	0.35000000	319.54375	472.58501	-100.27163	347.48786	407.30883	-109.16214	257.81054	87.48106	-142.59791	203.01867	60.84553	-183.94271	366.66693	41.65263	-118.79764	409.50183	57.83016	-173.39634	564.25446	513.22228	-369.16262	580.41402	417.71184	-349.84505	388.40324	177.39908	-340.22800	318.75988	166.89023	-296.88508	463.76854	86.82316	-360.51204	514.33381	90.59761	-306.19264	323.03695	297.51615	-107.23760	278.22630	422.38297	-78.32443	243.57743	311.03396	-83.10496	517.76892	463.89857	-395.14000	456.51606	357.45065	-396.58875	390.04843	714.53546	-41.11936	385.16302	602.41671	-66.92446	318.95992	584.24542	-63.57850	276.91799	717.32809	-41.01338	268.99095	608.20677	-80.90697	451.26686	766.18059	-404.84548	532.36727	653.23827	-389.98634	359.31399	703.98222	-397.40640	437.68276	596.57761	-359.36789	433.79376	925.57998	-101.54128	222.20523	956.45885	-183.71995	436.07561	921.91856	-322.55284	226.62252	949.81348	-265.47181	322.29461	1396.01327	-197.09642	373.32567	1358.75856	-58.64189	357.57356	1371.01642	-337.65199	444.26650	1328.48187	-180.11989	441.60411	1329.47171	-220.74910	409.01304	1248.18531	-4.20275	350.37422	1031.58167	-2.48839	393.43765	1046.77307	43.82340	473.06771	994.36832	39.24336	549.71639	872.58294	18.84715	526.15270	859.57219	49.53297	348.89119	1272.97712	-414.63439	285.13830	1055.08006	-402.45852	305.76809	1076.55476	-460.88233	367.19293	990.76369	-487.57404	407.70422	868.02636	-491.51392	375.39406	864.44002	-516.03658	348.59386	839.32082	-108.96898	354.99763	836.20597	-316.34974	357.40582	864.49940	-130.79333	365.25175	852.69777	-275.99276	
37	0.36000000	321.43465	473.40394	-100.52730	348.69987	407.83060	-109.02143	258.06738	88.16929	-142.84058	203.02766	61.63944	-184.26902	366.81287	41.57515	-118.82001	409.80765	57.74757	-173.26141	578.86588	514.56618	-367.52963	600.58155	420.01631	-348.08776	424.35824	167.03239	-341.31093	354.81923	152.14218	-298.91325	505.93648	81.55103	-359.91468	555.55567	89.13502	-304.89111	323.63796	298.15535	-107.11422	279.27865	423.34109	-78.98196	243.99883	312.18849	-83.95918	535.75014	461.77772	-394.74648	481.83920	351.73341	-397.27271	396.61957	713.99941	-41.30636	389.65211	602.06789	-67.22019	323.10384	585.17476	-64.16275	283.67992	718.90600	-41.62414	273.50033	610.18750	-81.64573	463.80261	766.54923	-404.78617	545.69222	654.30270	-388.95456	372.13896	703.78059	-397.97118	450.89647	596.83804	-359.04066	444.13496	925.23975	-101.24967	232.79433	955.78347	-185.32678	447.19824	921.67049	-322.22026	237.71224	949.11841	-267.08188	333.04577	1395.46642	-197.26532	384.72484	1358.53076	-59.03191	367.88790	1370.43082	-337.92613	455.06630	1328.20655	-180.65586	452.33462	1329.13053	-221.22296	421.91014	1248.45748	-4.96004	366.06459	1031.04182	-2.71475	409.27875	1046.85931	43.27299	489.84719	995.87911	37.61372	568.73685	875.77766	15.91315	545.54638	862.08223	46.69512	358.34795	1272.45663	-414.89283	294.22471	1054.68949	-402.25306	314.15969	1076.25557	-460.92176	375.30458	990.35577	-488.23967	415.71047	867.64137	-492.55079	383.20841	863.91043	-516.63509	358.78444	838.87943	-109.46946	366.65448	835.74682	-316.80476	367.75085	864.12542	-130.93977	376.48262	852.29485	-276.06483	
38	0.37000000	323.53933	474.21302	-100.80155	350.11220	408.31416	-108.90249	258.38169	88.88963	-143.08399	203.05981	62.48768	-184.58812	366.97323	41.48260	-118.84660	410.08719	57.66374	-173.12483	592.66116	515.07369	-365.74371	619.74194	421.94219	-346.06765	460.75934	157.06944	-342.26181	391.67189	137.81854	-300.88131	548.18016	77.10140	-359.10510	596.63129	88.44531	-303.36198	324.42966	298.79609	-106.99738	280.56553	424.29689	-79.62420	244.62326	313.35195	-84.78732	553.04177	459.08582	-394.24954	507.02578	345.79769	-397.81699	403.23496	713.41095	-41.57697	394.19774	601.72904	-67.53864	327.33622	586.06760	-64.76231	290.46237	720.37908	-42.33332	278.10613	612.07071	-82.41036	476.39548	766.48516	-404.57892	558.62936	654.60628	-387.73466	384.84164	703.44343	-398.62464	463.46076	596.56876	-358.82878	454.67279	924.71974	-101.14056	243.51738	954.87408	-186.77683	458.34780	921.25712	-322.10538	248.84847	948.22270	-268.51679	343.82432	1394.71996	-197.47152	396.14866	1358.13686	-59.45448	378.25810	1369.60353	-338.23215	465.93002	1327.69160	-181.21295	463.12559	1328.55202	-221.72599	434.78136	1248.54022	-5.81321	381.59304	1030.42913	-3.01522	424.97770	1046.82253	42.66166	506.43162	997.23995	35.93346	587.45734	878.81925	12.89171	564.66588	864.46987	43.77129	367.95721	1271.68398	-415.16553	303.56316	1053.98106	-402.03924	322.73413	1075.70668	-460.99429	383.58636	989.71413	-488.96912	423.89621	867.03551	-493.63760	391.24545	863.05475	-517.19805	369.24823	838.22707	-110.03372	378.30319	835.11828	-317.32511	378.31801	863.50888	-131.21204	387.78294	851.70347	-276.29620	
